<?xml version="1.0" standalone="no"?><!DOCTYPE svg PUBLIC "-//W3C//DTD SVG 1.1//EN" "http://www.w3.org/Graphics/SVG/1.1/DTD/svg11.dtd"><svg width="100%" height="100%" viewBox="0 0 800 800" version="1.1" xmlns="http://www.w3.org/2000/svg" xmlns:xlink="http://www.w3.org/1999/xlink" xml:space="preserve" style="fill-rule:evenodd;clip-rule:evenodd;stroke-linecap:round;stroke-linejoin:round;stroke-miterlimit:1;"><g id="Layer1"><g><g><circle cx="392.396" cy="386.603" r="369.198" style="fill:#fff;"/><clipPath id="_clip1"><circle cx="392.396" cy="386.603" r="369.198"/></clipPath><g clip-path="url(#_clip1)"><path d="M392.396,410.849l200.141,329.792" style="fill:none;stroke-width:511.16px;stroke:#e6e6e6;"/><path d="M387.977,-163.252l-552.28,494.138l285.672,319.285l552.28,-494.137l-285.672,-319.286Z" style="fill:#fff;"/></g><circle cx="392.396" cy="386.603" r="369.198" style="fill:none;stroke-width:17.22px;stroke-miterlimit:1.41421;stroke:#bfbfbf;"/></g><path d="M241.985,540.026c10.09,0 18.282,8.192 18.282,18.282c0,10.09 -8.192,18.282 -18.282,18.282c-10.09,0 -18.282,-8.192 -18.282,-18.282c0,-10.09 8.192,-18.282 18.282,-18.282ZM426.811,464.745c-0.998,1.112 -2.044,2.194 -3.137,3.246l-128.124,123.182c-24.276,23.34 -62.935,22.58 -86.275,-1.696c-23.34,-24.276 -22.58,-62.935 1.696,-86.275l106.645,-102.532c-35.077,-50.529 -36.941,-119.648 0.439,-172.891c25.058,-35.691 62.815,-57.218 102.89,-62.766l-36.643,100.286l44.908,74.295l82.228,-27.841l35.152,-105.72c52.512,50.722 61.813,133.602 18.553,195.219c-32.374,46.113 -85.949,68.584 -138.332,63.493Z" style="fill:#fff;stroke-width:16.16px;stroke-miterlimit:1.41421;stroke:#bfbfbf;"/><path d="M291.232,510.739l46.367,-45.077" style="fill:none;stroke-width:60px;stroke-miterlimit:1.41421;stroke:#e6e6e6;"/></g></g></svg>