<?xml version="1.0" standalone="no"?>
<!DOCTYPE svg PUBLIC "-//W3C//DTD SVG 20010904//EN"
 "http://www.w3.org/TR/2001/REC-SVG-20010904/DTD/svg10.dtd">
<svg version="1.0" xmlns="http://www.w3.org/2000/svg"
 width="300.000000pt" height="300.000000pt" viewBox="0 0 300.000000 300.000000"
 preserveAspectRatio="xMidYMid meet">
<metadata>
Created by potrace 1.11, written by Peter Selinger 2001-2013
</metadata>
<g transform="translate(0.000000,300.000000) scale(0.100000,-0.100000)"
fill="#000000" stroke="none">
<path d="M2043 2246 c-141 -33 -257 -120 -312 -236 -23 -48 -26 -68 -26 -160
0 -99 2 -110 33 -172 55 -113 160 -186 346 -242 236 -72 309 -131 309 -246 0
-192 -244 -301 -449 -200 -34 16 -78 48 -97 69 l-35 39 -76 -65 c-42 -35 -76
-68 -76 -72 0 -14 84 -87 131 -114 67 -38 174 -67 274 -73 323 -20 554 185
532 472 -14 185 -119 283 -390 363 -187 54 -272 111 -297 198 -28 93 19 193
115 242 43 23 63 26 145 26 109 0 169 -21 230 -80 l35 -33 75 69 74 68 -34 37
c-75 78 -172 112 -340 119 -70 3 -125 0 -167 -9z"/>
<path d="M470 1520 l0 -710 95 0 95 0 0 355 c0 219 4 355 10 355 5 0 158 -160
340 -355 l331 -355 135 0 c74 0 134 3 134 6 0 3 -145 157 -322 342 -177 185
-339 355 -360 377 l-38 41 340 324 339 325 -130 3 -130 3 -311 -303 c-170
-167 -316 -304 -324 -306 -12 -3 -14 44 -14 302 l0 306 -95 0 -95 0 0 -710z"/>
</g>
</svg>
