<?xml version="1.0" standalone="no"?>
<!DOCTYPE svg PUBLIC "-//W3C//DTD SVG 20010904//EN"
 "http://www.w3.org/TR/2001/REC-SVG-20010904/DTD/svg10.dtd">
<svg version="1.0" xmlns="http://www.w3.org/2000/svg"
 width="260.000000pt" height="260.000000pt" viewBox="0 0 260.000000 260.000000"
 preserveAspectRatio="xMidYMid meet">
<metadata>
Created by potrace 1.11, written by Peter Selinger 2001-2013
</metadata>
<g transform="translate(0.000000,260.000000) scale(0.100000,-0.100000)"
fill="#000000" stroke="none">
<path d="M1492 2340 c-51 -71 -92 -133 -92 -137 0 -10 52 -85 319 -463 127
-179 235 -332 241 -340 6 -8 26 -37 45 -64 19 -27 31 -54 28 -60 -8 -13 -209
-300 -412 -586 -221 -312 -221 -313 -221 -322 0 -5 41 -67 91 -138 91 -129 92
-129 109 -107 15 19 400 564 474 670 16 23 97 139 181 257 83 118 154 220 158
226 4 6 -19 48 -51 92 -229 324 -289 409 -304 431 -9 14 -77 112 -152 216 -74
105 -158 224 -187 265 -30 41 -72 101 -95 132 l-41 58 -91 -130z"/>
<path d="M952 2382 c-29 -42 -215 -306 -412 -586 -198 -280 -356 -514 -353
-520 4 -6 104 -148 222 -316 118 -168 226 -321 240 -341 15 -20 100 -142 191
-270 91 -128 168 -237 171 -241 9 -14 191 251 185 268 -3 9 -146 214 -318 456
-171 243 -311 447 -311 453 0 6 140 210 312 453 171 243 314 448 317 457 3 8
-17 47 -50 92 -30 43 -70 99 -88 125 -18 26 -37 47 -43 47 -5 0 -34 -35 -63
-77z"/>
<path d="M1258 2096 c-25 -33 -96 -135 -158 -226 -62 -91 -133 -193 -156 -227
l-43 -62 57 31 c31 17 76 41 99 54 23 13 44 24 46 24 6 0 18 -57 32 -144 3
-22 8 -43 12 -49 3 -5 70 55 148 133 l143 143 94 -68 c51 -38 109 -80 127 -94
41 -30 40 -29 -59 114 -102 146 -175 253 -242 351 l-56 82 -44 -62z"/>
</g>
</svg>
