<?xml version="1.0" standalone="no"?>
    <!DOCTYPE svg PUBLIC "-//W3C//DTD SVG 1.1//EN" "http://www.w3.org/Graphics/SVG/1.1/DTD/svg11.dtd">
        <svg width="100%" height="100%" viewBox="0 0 120 120" version="1.1" xmlns="http://www.w3.org/2000/svg" xmlns:xlink="http://www.w3.org/1999/xlink" xml:space="preserve" style="fill-rule:evenodd;clip-rule:evenodd;stroke-linecap:round;stroke-linejoin:round;stroke-miterlimit:1;">
            <g>
                <circle cx="59.833" cy="59.887" r="57.758" style="fill:#fff;"/>
                    <clipPath id="_clip1">
                        <circle cx="59.833" cy="59.887" r="57.758"/>
                    </clipPath>
                    <g clip-path="url(#_clip1)">
                        <path d="M57.087,56.815l34.057,58.458" style="fill:none;stroke-width:75px;stroke:#e6e6e6;"/>
                        <path d="M71.353,-19.344l-101.086,56.765l26.903,47.908l43.769,-13.629l13.499,-21.57l26.418,-5.417l17.4,-16.148l-26.903,-47.909Z" style="fill:#fff;"/>
                    </g>
                    <circle cx="59.833" cy="59.887" r="57.758" style="fill:none;stroke-width:2.69px;stroke-miterlimit:1.41421;stroke:#bfbfbf;"/>
                </g>
                <g id="Layer1"><g>
                    <path d="M63.619,23.049c-1.378,-0.946 -5.81,-0.946 -7.188,0c-1.378,0.946 0.214,4.432 -1.08,5.676c-1.294,1.245 -4.942,2.222 -6.685,1.792c-1.743,-0.431 -2.107,-4.245 -3.774,-4.376c-1.666,-0.13 -5.504,2.086 -6.225,3.594c-0.72,1.509 2.402,3.731 1.903,5.456c-0.499,1.725 -3.169,4.395 -4.894,4.894c-1.725,0.498 -3.947,-2.623 -5.456,-1.903c-1.508,0.721 -3.724,4.559 -3.594,6.225c0.131,1.667 3.945,2.03 4.376,3.774c0.431,1.743 -0.547,5.391 -1.791,6.685c-1.245,1.294 -4.73,-0.298 -5.676,1.08c-0.946,1.378 -0.946,5.81 0,7.188c0.946,1.378 4.431,-0.214 5.676,1.08c1.244,1.294 2.222,4.942 1.791,6.686c-0.431,1.743 -4.245,2.106 -4.376,3.773c-0.13,1.666 2.086,5.504 3.594,6.225c1.509,0.72 3.731,-2.401 5.456,-1.903c1.725,0.499 4.395,3.169 4.894,4.894c0.499,1.725 -2.623,3.948 -1.903,5.456c0.721,1.508 4.559,3.724 6.225,3.594c1.667,-0.13 2.031,-3.945 3.774,-4.376c1.743,-0.43 5.391,0.547 6.685,1.792c1.294,1.244 -0.298,4.73 1.08,5.676c1.378,0.946 5.81,0.946 7.188,0c1.378,-0.946 -0.214,-4.432 1.08,-5.676c1.294,-1.245 4.943,-2.222 6.686,-1.792c1.743,0.431 2.107,4.246 3.773,4.376c1.666,0.13 5.505,-2.086 6.225,-3.594c0.72,-1.508 -2.401,-3.731 -1.903,-5.456c0.499,-1.725 3.169,-4.395 4.894,-4.894c1.725,-0.498 3.948,2.623 5.456,1.903c1.508,-0.721 3.724,-4.559 3.594,-6.225c-0.13,-1.667 -3.945,-2.03 -4.376,-3.773c-0.43,-1.744 0.547,-5.392 1.792,-6.686c1.244,-1.294 4.73,0.298 5.676,-1.08c0.946,-1.378 0.946,-5.81 0,-7.188c-0.946,-1.378 -4.432,0.214 -5.676,-1.08c-1.245,-1.294 -2.222,-4.942 -1.792,-6.685c0.431,-1.744 4.246,-2.107 4.376,-3.774c0.13,-1.666 -2.086,-5.504 -3.594,-6.225c-1.508,-0.72 -3.731,2.401 -5.456,1.903c-1.725,-0.499 -4.395,-3.169 -4.894,-4.894c-0.498,-1.725 2.623,-3.947 1.903,-5.456c-0.72,-1.508 -4.559,-3.724 -6.225,-3.594c-1.666,0.131 -2.03,3.945 -3.773,4.376c-1.743,0.43 -5.392,-0.547 -6.686,-1.792c-1.294,-1.244 0.298,-4.73 -1.08,-5.676ZM60.025,52.207c4.048,0 7.334,3.286 7.334,7.333c0,4.047 -3.286,7.333 -7.334,7.333c-4.047,0 -7.333,-3.286 -7.333,-7.333c0,-4.047 3.286,-7.333 7.333,-7.333Z" style="fill:#fff;stroke-width:2.5px;stroke-linecap:butt;stroke-linejoin:miter;stroke-miterlimit:1.41421;stroke:#bfbfbf;"/>
                </g>
            </g>
        </svg>
