<?xml version="1.0" standalone="no"?><!DOCTYPE svg PUBLIC "-//W3C//DTD SVG 1.1//EN" "http://www.w3.org/Graphics/SVG/1.1/DTD/svg11.dtd"><svg width="100%" height="100%" viewBox="0 0 120 120" version="1.1" xmlns="http://www.w3.org/2000/svg" xmlns:xlink="http://www.w3.org/1999/xlink" xml:space="preserve" style="fill-rule:evenodd;clip-rule:evenodd;stroke-linecap:round;stroke-linejoin:round;stroke-miterlimit:1;"><g id="Layer1"><g><circle cx="60" cy="60" r="57.294" style="fill:#fff;"/><clipPath id="_clip1"><circle cx="60" cy="60" r="57.294"/></clipPath><g clip-path="url(#_clip1)"><path d="M60,61.784l31.059,53.157" style="fill:none;stroke-width:75px;stroke:#e6e6e6;"/><path d="M72.202,-19.522l-99.992,56.809l29.042,51.118l99.992,-56.81l-29.042,-51.117Z" style="fill:#fff;"/></g><circle cx="60" cy="60" r="57.294" style="fill:none;stroke-width:2.67px;stroke-miterlimit:1.41421;stroke:#bfbfbf;"/></g><path d="M32.78,36.226c10.242,-2.591 41.761,-2.623 51.896,0c4.285,1.11 7.557,5.472 9.188,9.586c2.11,5.326 3.45,17.115 0,25.371c-2.094,5.01 -5.737,8.078 -9.188,11.835c-1.397,1.521 5.561,13.245 3.473,13.245c-2.089,0 -11.627,-10.044 -18.405,-11.826c-9.116,-2.395 -29.188,-0.958 -36.964,-2.931c-4.261,-1.081 -7.856,-6.168 -9.291,-10.323c-3.047,-8.821 -2.989,-18.459 0,-25.371c1.766,-4.084 4.977,-8.494 9.291,-9.586Z" style="fill:#fff;"/><g><path d="M72.805,65.267l-0.07,-0.001l-0.069,-0.001l-0.069,-0.002l-0.068,-0.003l-0.069,-0.004l-0.068,-0.005l-0.068,-0.005l-0.068,-0.007l-0.067,-0.007l-0.067,-0.008l-0.067,-0.009l-0.067,-0.01l-0.066,-0.011l-0.067,-0.011l-0.066,-0.012l-0.065,-0.013l-0.065,-0.014l-0.066,-0.015l-0.064,-0.015l-0.065,-0.016l-0.064,-0.017l-0.064,-0.018l-0.063,-0.018l-0.063,-0.02l-0.063,-0.02l-0.063,-0.02l-0.062,-0.022l-0.062,-0.022l-0.061,-0.023l-0.061,-0.024l-0.061,-0.024l-0.06,-0.025l-0.06,-0.026l-0.06,-0.027l-0.059,-0.027l-0.059,-0.028l-0.058,-0.028l-0.058,-0.03l-0.058,-0.03l-0.057,-0.03l-0.057,-0.032l-0.056,-0.032l-0.056,-0.032l-0.056,-0.034l-0.055,-0.033l-0.055,-0.035l-0.054,-0.035l-0.054,-0.036l-0.053,-0.037l-0.053,-0.037l-0.052,-0.037l-0.052,-0.039l-0.051,-0.039l-0.051,-0.039l-0.051,-0.04l-0.05,-0.041l-0.049,-0.042l-0.049,-0.041l-0.049,-0.043l-0.048,-0.043l-0.047,-0.044l-0.047,-0.044l-0.046,-0.044l-0.046,-0.046l-0.045,-0.045l-0.045,-0.047l-0.044,-0.047l-0.044,-0.047l-0.043,-0.048l-0.042,-0.048l-0.042,-0.049l-0.041,-0.05l-0.041,-0.05l-0.04,-0.05l-0.04,-0.051l-0.039,-0.052l-0.038,-0.051l-0.038,-0.053l-0.037,-0.053l-0.036,-0.053l-0.036,-0.054l-0.036,-0.054l-0.034,-0.055l-0.034,-0.055l-0.033,-0.055l-0.033,-0.056l-0.032,-0.057l-0.031,-0.056l-0.031,-0.058l-0.03,-0.057l-0.029,-0.058l-0.029,-0.059l-0.028,-0.059l-0.027,-0.059l-0.027,-0.059l-0.025,-0.06l-0.026,-0.061l-0.024,-0.061l-0.024,-0.061l-0.023,-0.061l-0.022,-0.062l-0.021,-0.062l-0.021,-0.063l-0.02,-0.062l-0.019,-0.063l-0.019,-0.064l-0.017,-0.064l-0.017,-0.064l-0.017,-0.064l-0.015,-0.065l-0.014,-0.065l-0.014,-0.065l-0.013,-0.066l-0.013,-0.066l-0.011,-0.066l-0.011,-0.067l-0.009,-0.066l-0.009,-0.067l-0.008,-0.068l-0.008,-0.067l-0.006,-0.068l-0.006,-0.068l-0.005,-0.068l-0.003,-0.068l-0.003,-0.069l-0.003,-0.069l-0.001,-0.069l0,-0.069l0,-0.07l0.001,-0.069l0.003,-0.069l0.003,-0.068l0.003,-0.069l0.005,-0.068l0.006,-0.068l0.006,-0.068l0.008,-0.067l0.008,-0.067l0.009,-0.067l0.009,-0.067l0.011,-0.067l0.011,-0.066l0.013,-0.066l0.013,-0.065l0.014,-0.066l0.014,-0.065l0.015,-0.064l0.017,-0.065l0.017,-0.064l0.017,-0.064l0.019,-0.063l0.019,-0.063l0.02,-0.063l0.021,-0.063l0.021,-0.062l0.022,-0.062l0.023,-0.061l0.024,-0.061l0.024,-0.061l0.026,-0.06l0.025,-0.06l0.027,-0.06l0.027,-0.059l0.028,-0.059l0.029,-0.058l0.029,-0.058l0.03,-0.058l0.031,-0.057l0.031,-0.057l0.032,-0.056l0.033,-0.056l0.033,-0.056l0.034,-0.055l0.034,-0.055l0.036,-0.054l0.036,-0.054l0.036,-0.053l0.037,-0.053l0.038,-0.052l0.038,-0.052l0.039,-0.052l0.04,-0.05l0.04,-0.051l0.041,-0.05l0.041,-0.049l0.042,-0.049l0.042,-0.049l0.043,-0.048l0.044,-0.047l0.044,-0.047l0.045,-0.046l0.045,-0.046l0.046,-0.045l0.046,-0.045l0.047,-0.044l0.047,-0.044l0.048,-0.043l0.049,-0.042l0.049,-0.042l0.049,-0.041l0.05,-0.041l0.051,-0.04l0.051,-0.04l0.051,-0.039l0.052,-0.038l0.052,-0.038l0.053,-0.037l0.053,-0.036l0.054,-0.036l0.054,-0.036l0.055,-0.034l0.055,-0.034l0.056,-0.033l0.056,-0.033l0.056,-0.032l0.057,-0.031l0.057,-0.031l0.058,-0.03l0.058,-0.029l0.058,-0.029l0.059,-0.028l0.059,-0.027l0.06,-0.027l0.06,-0.025l0.06,-0.026l0.061,-0.024l0.061,-0.024l0.061,-0.023l0.062,-0.022l0.062,-0.021l0.063,-0.021l0.063,-0.02l0.063,-0.019l0.063,-0.019l0.064,-0.017l0.064,-0.017l0.065,-0.017l0.064,-0.015l0.066,-0.015l0.065,-0.013l0.065,-0.013l0.066,-0.013l0.067,-0.011l0.066,-0.011l0.067,-0.009l0.067,-0.009l0.067,-0.008l0.067,-0.008l0.068,-0.006l0.068,-0.006l0.068,-0.005l0.069,-0.003l0.068,-0.004l0.069,-0.002l0.069,-0.001l0.07,0l0.069,0l0.069,0.001l0.069,0.002l0.069,0.004l0.068,0.003l0.068,0.005l0.068,0.006l0.068,0.006l0.068,0.008l0.067,0.008l0.067,0.009l0.066,0.009l0.067,0.011l0.066,0.011l0.066,0.013l0.066,0.013l0.065,0.013l0.065,0.015l0.065,0.015l0.064,0.017l0.064,0.017l0.064,0.017l0.064,0.019l0.063,0.019l0.063,0.02l0.062,0.021l0.062,0.021l0.062,0.022l0.061,0.023l0.062,0.024l0.06,0.024l0.061,0.026l0.06,0.025l0.059,0.027l0.059,0.027l0.059,0.028l0.059,0.029l0.058,0.029l0.057,0.03l0.058,0.031l0.056,0.031l0.057,0.032l0.056,0.033l0.055,0.033l0.055,0.034l0.055,0.034l0.054,0.036l0.054,0.036l0.053,0.036l0.053,0.037l0.053,0.038l0.052,0.038l0.051,0.039l0.051,0.04l0.05,0.04l0.05,0.041l0.05,0.041l0.049,0.042l0.048,0.042l0.048,0.043l0.047,0.044l0.047,0.044l0.047,0.045l0.045,0.045l0.046,0.046l0.044,0.046l0.045,0.047l0.043,0.047l0.043,0.048l0.043,0.049l0.042,0.049l0.041,0.049l0.041,0.05l0.04,0.051l0.039,0.05l0.039,0.052l0.039,0.052l0.037,0.052l0.037,0.053l0.037,0.053l0.036,0.054l0.035,0.054l0.035,0.055l0.034,0.055l0.033,0.056l0.032,0.056l0.032,0.056l0.032,0.057l0.03,0.057l0.03,0.058l0.03,0.058l0.028,0.058l0.028,0.059l0.028,0.059l0.026,0.06l0.026,0.06l0.025,0.06l0.024,0.061l0.024,0.061l0.023,0.061l0.022,0.062l0.022,0.062l0.02,0.063l0.02,0.063l0.02,0.063l0.018,0.063l0.018,0.064l0.017,0.064l0.016,0.065l0.015,0.064l0.015,0.065l0.014,0.066l0.013,0.065l0.012,0.066l0.011,0.066l0.011,0.067l0.01,0.067l0.009,0.067l0.008,0.067l0.007,0.067l0.007,0.068l0.005,0.068l0.005,0.068l0.004,0.069l0.003,0.068l0.002,0.069l0.001,0.069l0.001,0.07l-0.001,0.069l-0.001,0.069l-0.002,0.069l-0.003,0.069l-0.004,0.068l-0.005,0.068l-0.005,0.068l-0.007,0.068l-0.007,0.067l-0.008,0.068l-0.009,0.067l-0.01,0.066l-0.011,0.067l-0.011,0.066l-0.012,0.066l-0.013,0.066l-0.014,0.065l-0.015,0.065l-0.015,0.065l-0.016,0.064l-0.017,0.064l-0.018,0.064l-0.018,0.064l-0.02,0.063l-0.02,0.062l-0.02,0.063l-0.022,0.062l-0.022,0.062l-0.023,0.061l-0.024,0.061l-0.024,0.061l-0.025,0.061l-0.026,0.06l-0.026,0.059l-0.028,0.059l-0.028,0.059l-0.028,0.059l-0.03,0.058l-0.03,0.057l-0.03,0.058l-0.032,0.056l-0.032,0.057l-0.032,0.056l-0.033,0.055l-0.034,0.055l-0.035,0.055l-0.035,0.054l-0.036,0.054l-0.037,0.053l-0.037,0.053l-0.037,0.053l-0.039,0.051l-0.039,0.052l-0.039,0.051l-0.04,0.05l-0.041,0.05l-0.041,0.05l-0.042,0.049l-0.043,0.048l-0.043,0.048l-0.043,0.047l-0.045,0.047l-0.044,0.047l-0.046,0.045l-0.045,0.046l-0.047,0.044l-0.047,0.044l-0.047,0.044l-0.048,0.043l-0.048,0.043l-0.049,0.041l-0.05,0.042l-0.05,0.041l-0.05,0.04l-0.051,0.039l-0.051,0.039l-0.052,0.039l-0.053,0.037l-0.053,0.037l-0.053,0.037l-0.054,0.036l-0.054,0.035l-0.055,0.035l-0.055,0.033l-0.055,0.034l-0.056,0.032l-0.057,0.032l-0.056,0.032l-0.058,0.03l-0.057,0.03l-0.058,0.03l-0.059,0.028l-0.059,0.028l-0.059,0.027l-0.059,0.027l-0.06,0.026l-0.061,0.025l-0.06,0.024l-0.062,0.024l-0.061,0.023l-0.062,0.022l-0.062,0.022l-0.062,0.02l-0.063,0.02l-0.063,0.02l-0.064,0.018l-0.064,0.018l-0.064,0.017l-0.064,0.016l-0.065,0.015l-0.065,0.015l-0.065,0.014l-0.066,0.013l-0.066,0.012l-0.066,0.011l-0.067,0.011l-0.066,0.01l-0.067,0.009l-0.067,0.008l-0.068,0.007l-0.068,0.007l-0.068,0.005l-0.068,0.005l-0.068,0.004l-0.069,0.003l-0.069,0.002l-0.069,0.001l-0.069,0.001Z" style="fill:#e6e6e6;"/><path d="M60,65.267l-0.069,-0.001l-0.069,-0.001l-0.069,-0.002l-0.069,-0.003l-0.068,-0.004l-0.069,-0.005l-0.068,-0.005l-0.067,-0.007l-0.068,-0.007l-0.067,-0.008l-0.067,-0.009l-0.067,-0.01l-0.066,-0.011l-0.066,-0.011l-0.066,-0.012l-0.066,-0.013l-0.065,-0.014l-0.065,-0.015l-0.065,-0.015l-0.064,-0.016l-0.065,-0.017l-0.063,-0.018l-0.064,-0.018l-0.063,-0.02l-0.063,-0.02l-0.062,-0.02l-0.062,-0.022l-0.062,-0.022l-0.062,-0.023l-0.061,-0.024l-0.061,-0.024l-0.06,-0.025l-0.06,-0.026l-0.06,-0.027l-0.059,-0.027l-0.059,-0.028l-0.058,-0.028l-0.058,-0.03l-0.058,-0.03l-0.057,-0.03l-0.057,-0.032l-0.056,-0.032l-0.056,-0.032l-0.056,-0.034l-0.055,-0.033l-0.054,-0.035l-0.055,-0.035l-0.053,-0.036l-0.054,-0.037l-0.053,-0.037l-0.052,-0.037l-0.052,-0.039l-0.051,-0.039l-0.051,-0.039l-0.051,-0.04l-0.05,-0.041l-0.049,-0.042l-0.049,-0.041l-0.048,-0.043l-0.048,-0.043l-0.048,-0.044l-0.047,-0.044l-0.046,-0.044l-0.046,-0.046l-0.045,-0.045l-0.045,-0.047l-0.044,-0.047l-0.043,-0.047l-0.043,-0.048l-0.043,-0.048l-0.042,-0.049l-0.041,-0.05l-0.041,-0.05l-0.04,-0.05l-0.04,-0.051l-0.038,-0.052l-0.039,-0.051l-0.038,-0.053l-0.037,-0.053l-0.036,-0.053l-0.036,-0.054l-0.035,-0.054l-0.035,-0.055l-0.034,-0.055l-0.033,-0.055l-0.033,-0.056l-0.032,-0.057l-0.031,-0.056l-0.031,-0.058l-0.03,-0.057l-0.029,-0.058l-0.029,-0.059l-0.028,-0.059l-0.027,-0.059l-0.026,-0.059l-0.026,-0.06l-0.025,-0.061l-0.025,-0.061l-0.023,-0.061l-0.023,-0.061l-0.023,-0.062l-0.021,-0.062l-0.021,-0.063l-0.02,-0.062l-0.019,-0.063l-0.018,-0.064l-0.018,-0.064l-0.017,-0.064l-0.016,-0.064l-0.016,-0.065l-0.014,-0.065l-0.014,-0.065l-0.013,-0.066l-0.012,-0.066l-0.012,-0.066l-0.01,-0.067l-0.01,-0.066l-0.009,-0.067l-0.008,-0.068l-0.007,-0.067l-0.007,-0.068l-0.005,-0.068l-0.005,-0.068l-0.004,-0.068l-0.003,-0.069l-0.002,-0.069l-0.002,-0.069l0,-0.069l0,-0.07l0.002,-0.069l0.002,-0.069l0.003,-0.068l0.004,-0.069l0.005,-0.068l0.005,-0.068l0.007,-0.068l0.007,-0.067l0.008,-0.067l0.009,-0.067l0.01,-0.067l0.01,-0.067l0.012,-0.066l0.012,-0.066l0.013,-0.065l0.014,-0.066l0.014,-0.065l0.016,-0.064l0.016,-0.065l0.017,-0.064l0.018,-0.064l0.018,-0.063l0.019,-0.063l0.02,-0.063l0.021,-0.063l0.021,-0.062l0.023,-0.062l0.023,-0.061l0.023,-0.061l0.025,-0.061l0.025,-0.06l0.026,-0.06l0.026,-0.06l0.027,-0.059l0.028,-0.059l0.029,-0.058l0.029,-0.058l0.03,-0.058l0.031,-0.057l0.031,-0.057l0.032,-0.056l0.033,-0.056l0.033,-0.056l0.034,-0.055l0.035,-0.055l0.035,-0.054l0.036,-0.054l0.036,-0.053l0.037,-0.053l0.038,-0.052l0.039,-0.052l0.038,-0.052l0.04,-0.05l0.04,-0.051l0.041,-0.05l0.041,-0.049l0.042,-0.049l0.043,-0.049l0.043,-0.048l0.043,-0.047l0.044,-0.047l0.045,-0.046l0.045,-0.046l0.046,-0.045l0.046,-0.045l0.047,-0.044l0.048,-0.044l0.048,-0.043l0.048,-0.042l0.049,-0.042l0.049,-0.041l0.05,-0.041l0.051,-0.04l0.051,-0.04l0.051,-0.039l0.052,-0.038l0.052,-0.038l0.053,-0.037l0.054,-0.036l0.053,-0.036l0.055,-0.036l0.054,-0.034l0.055,-0.034l0.056,-0.033l0.056,-0.033l0.056,-0.032l0.057,-0.031l0.057,-0.031l0.058,-0.03l0.058,-0.029l0.058,-0.029l0.059,-0.028l0.059,-0.027l0.06,-0.027l0.06,-0.025l0.06,-0.026l0.061,-0.024l0.061,-0.024l0.062,-0.023l0.062,-0.022l0.062,-0.021l0.062,-0.021l0.063,-0.02l0.063,-0.019l0.064,-0.019l0.063,-0.017l0.065,-0.017l0.064,-0.017l0.065,-0.015l0.065,-0.015l0.065,-0.013l0.066,-0.013l0.066,-0.013l0.066,-0.011l0.066,-0.011l0.067,-0.009l0.067,-0.009l0.067,-0.008l0.068,-0.008l0.067,-0.006l0.068,-0.006l0.069,-0.005l0.068,-0.003l0.069,-0.004l0.069,-0.002l0.069,-0.001l0.069,0l0.069,0l0.069,0.001l0.069,0.002l0.069,0.004l0.068,0.003l0.069,0.005l0.068,0.006l0.067,0.006l0.068,0.008l0.067,0.008l0.067,0.009l0.067,0.009l0.066,0.011l0.066,0.011l0.066,0.013l0.066,0.013l0.065,0.013l0.065,0.015l0.065,0.015l0.064,0.017l0.065,0.017l0.063,0.017l0.064,0.019l0.063,0.019l0.063,0.02l0.062,0.021l0.062,0.021l0.062,0.022l0.062,0.023l0.061,0.024l0.061,0.024l0.06,0.026l0.06,0.025l0.06,0.027l0.059,0.027l0.059,0.028l0.058,0.029l0.058,0.029l0.058,0.03l0.057,0.031l0.057,0.031l0.056,0.032l0.056,0.033l0.056,0.033l0.055,0.034l0.054,0.034l0.055,0.036l0.053,0.036l0.054,0.036l0.053,0.037l0.052,0.038l0.052,0.038l0.051,0.039l0.051,0.04l0.051,0.04l0.05,0.041l0.049,0.041l0.049,0.042l0.048,0.042l0.048,0.043l0.048,0.044l0.047,0.044l0.046,0.045l0.046,0.045l0.045,0.046l0.045,0.046l0.044,0.047l0.043,0.047l0.043,0.048l0.043,0.049l0.042,0.049l0.041,0.049l0.041,0.05l0.04,0.051l0.04,0.05l0.038,0.052l0.039,0.052l0.038,0.052l0.037,0.053l0.036,0.053l0.036,0.054l0.035,0.054l0.035,0.055l0.034,0.055l0.033,0.056l0.033,0.056l0.032,0.056l0.031,0.057l0.031,0.057l0.03,0.058l0.029,0.058l0.029,0.058l0.028,0.059l0.027,0.059l0.026,0.06l0.026,0.06l0.025,0.06l0.025,0.061l0.023,0.061l0.023,0.061l0.023,0.062l0.021,0.062l0.021,0.063l0.02,0.063l0.019,0.063l0.018,0.063l0.018,0.064l0.017,0.064l0.016,0.065l0.016,0.064l0.014,0.065l0.014,0.066l0.013,0.065l0.012,0.066l0.012,0.066l0.01,0.067l0.01,0.067l0.009,0.067l0.008,0.067l0.007,0.067l0.007,0.068l0.005,0.068l0.005,0.068l0.004,0.069l0.003,0.068l0.002,0.069l0.002,0.069l0,0.07l0,0.069l-0.002,0.069l-0.002,0.069l-0.003,0.069l-0.004,0.068l-0.005,0.068l-0.005,0.068l-0.007,0.068l-0.007,0.067l-0.008,0.068l-0.009,0.067l-0.01,0.066l-0.01,0.067l-0.012,0.066l-0.012,0.066l-0.013,0.066l-0.014,0.065l-0.014,0.065l-0.016,0.065l-0.016,0.064l-0.017,0.064l-0.018,0.064l-0.018,0.064l-0.019,0.063l-0.02,0.062l-0.021,0.063l-0.021,0.062l-0.023,0.062l-0.023,0.061l-0.023,0.061l-0.025,0.061l-0.025,0.061l-0.026,0.06l-0.026,0.059l-0.027,0.059l-0.028,0.059l-0.029,0.059l-0.029,0.058l-0.03,0.057l-0.031,0.058l-0.031,0.056l-0.032,0.057l-0.033,0.056l-0.033,0.055l-0.034,0.055l-0.035,0.055l-0.035,0.054l-0.036,0.054l-0.036,0.053l-0.037,0.053l-0.038,0.053l-0.039,0.051l-0.038,0.052l-0.04,0.051l-0.04,0.05l-0.041,0.05l-0.041,0.05l-0.042,0.049l-0.043,0.048l-0.043,0.048l-0.043,0.047l-0.044,0.047l-0.045,0.047l-0.045,0.045l-0.046,0.046l-0.046,0.044l-0.047,0.044l-0.048,0.044l-0.048,0.043l-0.048,0.043l-0.049,0.041l-0.049,0.042l-0.05,0.041l-0.051,0.04l-0.051,0.039l-0.051,0.039l-0.052,0.039l-0.052,0.037l-0.053,0.037l-0.054,0.037l-0.053,0.036l-0.055,0.035l-0.054,0.035l-0.055,0.033l-0.056,0.034l-0.056,0.032l-0.056,0.032l-0.057,0.032l-0.057,0.03l-0.058,0.03l-0.058,0.03l-0.058,0.028l-0.059,0.028l-0.059,0.027l-0.06,0.027l-0.06,0.026l-0.06,0.025l-0.061,0.024l-0.061,0.024l-0.062,0.023l-0.062,0.022l-0.062,0.022l-0.062,0.02l-0.063,0.02l-0.063,0.02l-0.064,0.018l-0.063,0.018l-0.065,0.017l-0.064,0.016l-0.065,0.015l-0.065,0.015l-0.065,0.014l-0.066,0.013l-0.066,0.012l-0.066,0.011l-0.066,0.011l-0.067,0.01l-0.067,0.009l-0.067,0.008l-0.068,0.007l-0.067,0.007l-0.068,0.005l-0.069,0.005l-0.068,0.004l-0.069,0.003l-0.069,0.002l-0.069,0.001l-0.069,0.001Z" style="fill:#e6e6e6;"/><path d="M46.765,65.267l-0.069,-0.001l-0.069,-0.001l-0.069,-0.002l-0.069,-0.003l-0.068,-0.004l-0.069,-0.005l-0.067,-0.005l-0.068,-0.007l-0.068,-0.007l-0.067,-0.008l-0.067,-0.009l-0.067,-0.01l-0.066,-0.011l-0.066,-0.011l-0.066,-0.012l-0.066,-0.013l-0.065,-0.014l-0.065,-0.015l-0.065,-0.015l-0.064,-0.016l-0.064,-0.017l-0.064,-0.018l-0.064,-0.018l-0.063,-0.02l-0.063,-0.02l-0.062,-0.02l-0.062,-0.022l-0.062,-0.022l-0.062,-0.023l-0.061,-0.024l-0.06,-0.024l-0.061,-0.025l-0.06,-0.026l-0.059,-0.027l-0.06,-0.027l-0.058,-0.028l-0.059,-0.028l-0.058,-0.03l-0.058,-0.03l-0.057,-0.03l-0.057,-0.032l-0.056,-0.032l-0.056,-0.032l-0.056,-0.034l-0.055,-0.033l-0.054,-0.035l-0.055,-0.035l-0.053,-0.036l-0.054,-0.037l-0.052,-0.037l-0.053,-0.037l-0.052,-0.039l-0.051,-0.039l-0.051,-0.039l-0.05,-0.04l-0.05,-0.041l-0.05,-0.042l-0.049,-0.041l-0.048,-0.043l-0.048,-0.043l-0.048,-0.044l-0.046,-0.044l-0.047,-0.044l-0.046,-0.046l-0.045,-0.045l-0.045,-0.047l-0.044,-0.047l-0.043,-0.047l-0.043,-0.048l-0.043,-0.048l-0.042,-0.049l-0.041,-0.05l-0.041,-0.05l-0.04,-0.05l-0.039,-0.051l-0.039,-0.052l-0.039,-0.051l-0.037,-0.053l-0.038,-0.053l-0.036,-0.053l-0.036,-0.054l-0.035,-0.054l-0.035,-0.055l-0.034,-0.055l-0.033,-0.055l-0.033,-0.056l-0.032,-0.057l-0.031,-0.056l-0.031,-0.058l-0.03,-0.057l-0.029,-0.058l-0.029,-0.059l-0.027,-0.059l-0.028,-0.059l-0.026,-0.059l-0.026,-0.06l-0.025,-0.061l-0.025,-0.061l-0.023,-0.061l-0.023,-0.061l-0.022,-0.062l-0.022,-0.062l-0.021,-0.063l-0.02,-0.062l-0.019,-0.063l-0.018,-0.064l-0.018,-0.064l-0.017,-0.064l-0.016,-0.064l-0.016,-0.065l-0.014,-0.065l-0.014,-0.065l-0.013,-0.066l-0.012,-0.066l-0.012,-0.066l-0.01,-0.067l-0.01,-0.066l-0.009,-0.067l-0.008,-0.068l-0.007,-0.067l-0.007,-0.068l-0.005,-0.068l-0.005,-0.068l-0.004,-0.068l-0.003,-0.069l-0.002,-0.069l-0.002,-0.069l0,-0.069l0,-0.07l0.002,-0.069l0.002,-0.069l0.003,-0.068l0.004,-0.069l0.005,-0.068l0.005,-0.068l0.007,-0.068l0.007,-0.067l0.008,-0.067l0.009,-0.067l0.01,-0.067l0.01,-0.067l0.012,-0.066l0.012,-0.066l0.013,-0.065l0.014,-0.066l0.014,-0.065l0.016,-0.064l0.016,-0.065l0.017,-0.064l0.018,-0.064l0.018,-0.063l0.019,-0.063l0.02,-0.063l0.021,-0.063l0.022,-0.062l0.022,-0.062l0.023,-0.061l0.023,-0.061l0.025,-0.061l0.025,-0.06l0.026,-0.06l0.026,-0.06l0.028,-0.059l0.027,-0.059l0.029,-0.058l0.029,-0.058l0.03,-0.058l0.031,-0.057l0.031,-0.057l0.032,-0.056l0.033,-0.056l0.033,-0.056l0.034,-0.055l0.035,-0.055l0.035,-0.054l0.036,-0.054l0.036,-0.053l0.038,-0.053l0.037,-0.052l0.039,-0.052l0.039,-0.052l0.039,-0.05l0.04,-0.051l0.041,-0.05l0.041,-0.049l0.042,-0.049l0.043,-0.049l0.043,-0.048l0.043,-0.047l0.044,-0.047l0.045,-0.046l0.045,-0.046l0.046,-0.045l0.047,-0.045l0.046,-0.044l0.048,-0.044l0.048,-0.043l0.048,-0.042l0.049,-0.042l0.05,-0.041l0.05,-0.041l0.05,-0.04l0.051,-0.04l0.051,-0.039l0.052,-0.038l0.053,-0.038l0.052,-0.037l0.054,-0.036l0.053,-0.036l0.055,-0.036l0.054,-0.034l0.055,-0.034l0.056,-0.033l0.056,-0.033l0.056,-0.032l0.057,-0.031l0.057,-0.031l0.058,-0.03l0.058,-0.029l0.059,-0.029l0.058,-0.028l0.06,-0.027l0.059,-0.027l0.06,-0.025l0.061,-0.026l0.06,-0.024l0.061,-0.024l0.062,-0.023l0.062,-0.022l0.062,-0.021l0.062,-0.021l0.063,-0.02l0.063,-0.019l0.064,-0.019l0.064,-0.017l0.064,-0.017l0.064,-0.017l0.065,-0.015l0.065,-0.015l0.065,-0.013l0.066,-0.013l0.066,-0.013l0.066,-0.011l0.066,-0.011l0.067,-0.009l0.067,-0.009l0.067,-0.008l0.068,-0.008l0.068,-0.006l0.067,-0.006l0.069,-0.005l0.068,-0.003l0.069,-0.004l0.069,-0.002l0.069,-0.001l0.069,0l0.069,0l0.07,0.001l0.068,0.002l0.069,0.004l0.069,0.003l0.068,0.005l0.068,0.006l0.067,0.006l0.068,0.008l0.067,0.008l0.067,0.009l0.067,0.009l0.066,0.011l0.066,0.011l0.066,0.013l0.066,0.013l0.065,0.013l0.065,0.015l0.065,0.015l0.065,0.017l0.064,0.017l0.063,0.017l0.064,0.019l0.063,0.019l0.063,0.02l0.062,0.021l0.063,0.021l0.061,0.022l0.062,0.023l0.061,0.024l0.061,0.024l0.06,0.026l0.06,0.025l0.06,0.027l0.059,0.027l0.059,0.028l0.058,0.029l0.058,0.029l0.058,0.03l0.057,0.031l0.057,0.031l0.056,0.032l0.056,0.033l0.056,0.033l0.055,0.034l0.055,0.034l0.054,0.036l0.054,0.036l0.053,0.036l0.053,0.037l0.052,0.038l0.052,0.038l0.051,0.039l0.051,0.04l0.051,0.04l0.05,0.041l0.049,0.041l0.049,0.042l0.048,0.042l0.048,0.043l0.048,0.044l0.047,0.044l0.046,0.045l0.046,0.045l0.045,0.046l0.045,0.046l0.044,0.047l0.044,0.047l0.043,0.048l0.042,0.049l0.042,0.049l0.041,0.049l0.041,0.05l0.04,0.051l0.04,0.05l0.039,0.052l0.038,0.052l0.038,0.052l0.037,0.053l0.036,0.053l0.036,0.054l0.035,0.054l0.035,0.055l0.034,0.055l0.033,0.056l0.033,0.056l0.032,0.056l0.031,0.057l0.031,0.057l0.03,0.058l0.029,0.058l0.029,0.058l0.028,0.059l0.027,0.059l0.026,0.06l0.026,0.06l0.025,0.06l0.025,0.061l0.023,0.061l0.023,0.061l0.023,0.062l0.021,0.062l0.021,0.063l0.02,0.063l0.019,0.063l0.019,0.063l0.017,0.064l0.017,0.064l0.016,0.065l0.016,0.064l0.014,0.065l0.014,0.066l0.013,0.065l0.012,0.066l0.012,0.066l0.01,0.067l0.01,0.067l0.009,0.067l0.008,0.067l0.008,0.067l0.006,0.068l0.006,0.068l0.004,0.068l0.004,0.069l0.003,0.068l0.003,0.069l0.001,0.069l0,0.07l0,0.069l-0.001,0.069l-0.003,0.069l-0.003,0.069l-0.004,0.068l-0.004,0.068l-0.006,0.068l-0.006,0.068l-0.008,0.067l-0.008,0.068l-0.009,0.067l-0.01,0.066l-0.01,0.067l-0.012,0.066l-0.012,0.066l-0.013,0.066l-0.014,0.065l-0.014,0.065l-0.016,0.065l-0.016,0.064l-0.017,0.064l-0.017,0.064l-0.019,0.064l-0.019,0.063l-0.02,0.062l-0.021,0.063l-0.021,0.062l-0.023,0.062l-0.023,0.061l-0.023,0.061l-0.025,0.061l-0.025,0.061l-0.026,0.06l-0.026,0.059l-0.027,0.059l-0.028,0.059l-0.029,0.059l-0.029,0.058l-0.03,0.057l-0.031,0.058l-0.031,0.056l-0.032,0.057l-0.033,0.056l-0.033,0.055l-0.034,0.055l-0.035,0.055l-0.035,0.054l-0.036,0.054l-0.036,0.053l-0.037,0.053l-0.038,0.053l-0.038,0.051l-0.039,0.052l-0.04,0.051l-0.04,0.05l-0.041,0.05l-0.041,0.05l-0.042,0.049l-0.042,0.048l-0.043,0.048l-0.044,0.047l-0.044,0.047l-0.045,0.047l-0.045,0.045l-0.046,0.046l-0.046,0.044l-0.047,0.044l-0.048,0.044l-0.048,0.043l-0.048,0.043l-0.049,0.041l-0.049,0.042l-0.05,0.041l-0.051,0.04l-0.051,0.039l-0.051,0.039l-0.052,0.039l-0.052,0.037l-0.053,0.037l-0.053,0.037l-0.054,0.036l-0.054,0.035l-0.055,0.035l-0.055,0.033l-0.056,0.034l-0.056,0.032l-0.056,0.032l-0.057,0.032l-0.057,0.03l-0.058,0.03l-0.058,0.03l-0.058,0.028l-0.059,0.028l-0.059,0.027l-0.06,0.027l-0.06,0.026l-0.06,0.025l-0.061,0.024l-0.061,0.024l-0.062,0.023l-0.061,0.022l-0.063,0.022l-0.062,0.02l-0.063,0.02l-0.063,0.02l-0.064,0.018l-0.063,0.018l-0.064,0.017l-0.065,0.016l-0.065,0.015l-0.065,0.015l-0.065,0.014l-0.066,0.013l-0.066,0.012l-0.066,0.011l-0.066,0.011l-0.067,0.01l-0.067,0.009l-0.067,0.008l-0.068,0.007l-0.067,0.007l-0.068,0.005l-0.068,0.005l-0.069,0.004l-0.069,0.003l-0.068,0.002l-0.07,0.001l-0.069,0.001Z" style="fill:#e6e6e6;"/></g><path d="M32.78,36.226c10.242,-2.591 41.761,-2.623 51.896,0c4.285,1.11 7.557,5.472 9.188,9.586c2.11,5.326 3.45,17.115 0,25.371c-2.094,5.01 -5.737,8.078 -9.188,11.835c-1.397,1.521 5.561,13.245 3.473,13.245c-2.089,0 -11.627,-10.044 -18.405,-11.826c-9.116,-2.395 -29.188,-0.958 -36.964,-2.931c-4.261,-1.081 -7.856,-6.168 -9.291,-10.323c-3.047,-8.821 -2.989,-18.459 0,-25.371c1.766,-4.084 4.977,-8.494 9.291,-9.586Z" style="fill:none;stroke-width:2.5px;stroke-miterlimit:1.41421;stroke:#bfbfbf;"/></g></svg>