<?xml version="1.0" standalone="no"?><!DOCTYPE svg PUBLIC "-//W3C//DTD SVG 1.1//EN" "http://www.w3.org/Graphics/SVG/1.1/DTD/svg11.dtd"><svg width="100%" height="100%" viewBox="0 0 120 120" version="1.1" xmlns="http://www.w3.org/2000/svg" xmlns:xlink="http://www.w3.org/1999/xlink" xml:space="preserve" style="fill-rule:evenodd;clip-rule:evenodd;stroke-linecap:round;stroke-linejoin:round;stroke-miterlimit:1;"><g id="Layer1"><g><circle cx="60.066" cy="59.831" r="57.664" style="fill:#fff;"/><clipPath id="_clip1"><circle cx="60.066" cy="59.831" r="57.664"/></clipPath><g clip-path="url(#_clip1)"><path d="M56.672,60l34.653,55.126" style="fill:none;stroke-width:78px;stroke:#e6e6e6;"/><path d="M55.596,-27.088l-81.642,82.046l47.348,47.114l46.306,-48.795l12.925,6.723l7.994,-10.313l0,-5.811l-2.647,-6.703l17.063,-17.147l-47.347,-47.114Z" style="fill:#fff;"/></g><circle cx="60.066" cy="59.831" r="57.664" style="fill:none;stroke-width:2.69px;stroke-miterlimit:1.41421;stroke:#bfbfbf;"/></g><g><g><clipPath id="_clip2"><path d="M85.059,55.118c5.363,-6.551 4.399,-16.224 -2.152,-21.588l-3.139,-2.57c-6.551,-5.363 -16.224,-4.399 -21.587,2.152c-5.363,6.551 -4.399,16.224 2.152,21.587l3.139,2.57c6.551,5.364 16.224,4.4 21.587,-2.151Z"/></clipPath><g clip-path="url(#_clip2)"><path d="M56.778,62.45l-21.519,26.585" style="fill:none;stroke-width:78px;stroke:#e6e6e6;"/></g><path d="M85.059,55.118c5.363,-6.551 4.399,-16.224 -2.152,-21.588l-3.139,-2.57c-6.551,-5.363 -16.224,-4.399 -21.587,2.152c-5.363,6.551 -4.399,16.224 2.152,21.587l3.139,2.57c6.551,5.364 16.224,4.4 21.587,-2.151Z" style="fill:none;stroke-width:2.6px;stroke-miterlimit:1.41421;stroke:#bfbfbf;"/><path d="M58.363,32.69l-27.854,33.714l1.933,25.856l25.056,-3.558l27.854,-33.713l-26.989,-22.299Z" style="fill:#fff;"/><clipPath id="_clip3"><path d="M58.363,32.69l-27.854,33.714l1.933,25.856l25.056,-3.558l27.854,-33.713l-26.989,-22.299Z"/></clipPath><g clip-path="url(#_clip3)"><path d="M27.209,86.161l19.109,15.35" style="fill:none;stroke-width:11px;stroke:#bfbfbf;"/><path d="M84.58,55.024c0,0 -26.181,31.982 -26.649,32.274c-3.499,2.18 -8.099,-0.649 -8.488,-4.887c-0.045,-0.486 -0.046,-0.967 -0.007,-1.437c-0.424,0.132 -0.866,0.224 -1.322,0.272c-3.969,0.416 -7.508,-2.687 -7.897,-6.925c-0.022,-0.243 -0.034,-0.484 -0.035,-0.723c-0.22,0.045 -0.444,0.08 -0.671,0.104c-3.97,0.416 -8.481,-2.353 -8.869,-6.59c-0.06,-0.649 27.289,-33.52 27.289,-33.52l26.649,21.432Z" style="fill:#fff;stroke-width:2.5px;stroke-miterlimit:1.41421;stroke:#bfbfbf;"/><path d="M40.239,74.109l27.567,-33.606" style="fill:none;stroke-width:2.5px;stroke-miterlimit:1.41421;stroke:#bfbfbf;"/><path d="M49.544,81.524l27.494,-33.667" style="fill:none;stroke-width:2.5px;stroke-miterlimit:1.41421;stroke:#bfbfbf;"/></g><path d="M58.363,32.69l-27.854,33.714l1.933,25.856l25.056,-3.558l27.854,-33.713l-26.989,-22.299Z" style="fill:none;stroke-width:2.16px;stroke-miterlimit:1.41421;stroke:#bfbfbf;"/></g></g></g></svg>