<?xml version="1.0" standalone="no"?><!DOCTYPE svg PUBLIC "-//W3C//DTD SVG 1.1//EN" "http://www.w3.org/Graphics/SVG/1.1/DTD/svg11.dtd"><svg width="100%" height="100%" viewBox="0 0 1000 550" version="1.1" xmlns="http://www.w3.org/2000/svg" xmlns:xlink="http://www.w3.org/1999/xlink" xml:space="preserve" style="fill-rule:evenodd;clip-rule:evenodd;stroke-linejoin:round;stroke-miterlimit:1.41421;"><g id="Layer 1"><path d="M262.518,226.767c0.833,-1.406 1.614,-2.863 2.395,-4.269c2.395,-4.269 4.737,-8.486 7.08,-12.755c-2.551,-0.052 -5.155,-0.157 -7.705,-0.208c0.572,1.041 -1.353,1.406 -2.551,1.613c-3.176,0.521 -3.54,5.258 -6.247,7.029c-3.853,2.551 -6.873,6.299 -8.643,10.568c-5.883,9.372 -11.506,18.9 -16.764,28.634c-1.77,2.656 -2.967,5.675 -3.384,8.8c2.135,0.468 4.478,-0.262 5.935,-1.823c2.499,-2.551 4.998,-5.103 7.498,-7.653c0.519,-0.105 1.093,-0.26 1.665,-0.364c5.935,-8.071 12.078,-16.035 18.274,-23.897c0.26,-2.082 1.405,-3.905 2.447,-5.675M223.732,282.473c-4.425,3.541 -8.955,7.185 -14.318,8.955c-5.414,1.77 -11.87,1.355 -16.035,-2.499c-4.686,-4.373 -5.05,-11.661 -4.529,-18.117c1.198,-13.38 5.05,-26.552 11.245,-38.527c2.759,-5.205 5.883,-11.661 2.603,-16.555c-15.098,28.635 -30.196,57.216 -45.293,85.798c-3.28,6.247 -9.059,13.537 -15.671,11.246c-2.291,-8.59 -1.718,-17.909 1.509,-26.187c-17.909,20.46 -37.276,41.909 -63.411,49.511c-5.987,1.77 -13.172,3.488 -15.411,9.319c-3.28,8.642 -8.589,16.451 -15.358,22.751c-2.499,2.29 -5.415,4.477 -8.799,4.685c-6.82,0.47 -11.297,-6.716 -13.952,-13.014c-4.738,-11.403 -8.539,-23.22 -11.349,-35.3c4.684,-0.623 6.975,5.416 8.069,10.049c2.759,11.61 8.591,22.49 16.764,31.185c6.82,-7.861 13.641,-15.774 20.46,-23.688c-2.239,-2.499 -6.039,-2.603 -9.371,-2.968c-15.463,-1.717 -28.79,-12.806 -36.339,-26.396c-7.498,-13.64 -9.944,-29.519 -10.412,-45.034c6.194,1.302 7.964,9.164 8.902,15.464c2.551,16.66 9.632,33.892 24.052,42.639c12.912,7.809 29.624,7.184 43.681,1.717c14.109,-5.466 26.031,-15.254 37.276,-25.354c11.401,-10.204 22.439,-20.98 30.665,-33.84c6.872,-10.725 11.61,-22.699 16.191,-34.569c12.859,-33.424 24.573,-67.265 35.143,-101.418c1.093,-3.54 4.737,-7.966 7.496,-5.466c-11.87,47.48 -28.27,93.868 -48.886,138.277c-5.935,12.807 -12.391,26.24 -11.246,40.296c16.296,-28.895 32.539,-57.788 48.783,-86.683c3.904,-6.977 9.943,-15.047 17.805,-13.641c-5.31,17.285 -10.672,34.57 -15.983,51.855c-2.707,8.745 -5.102,19.21 0.729,26.238c9.319,0.469 18.689,-2.967 25.51,-9.266c-6.351,-5.415 -2.603,-15.672 1.511,-22.96c8.225,-14.526 16.607,-29.155 28.061,-41.285c5.414,-5.727 14.316,-10.934 20.408,-6.091c3.748,3.019 4.321,8.641 2.812,13.171c-1.459,4.529 -4.53,8.33 -7.134,12.287c-6.767,10.1 -10.985,23.375 -5.882,34.413c10.829,-1.666 20.616,-7.653 28.478,-15.307c16.399,-16.087 24.469,-38.578 33.059,-59.923c1.197,-2.968 4.113,-6.56 6.821,-4.893c-3.697,25.979 -24.001,48.573 -22.648,74.813c8.643,-0.782 14.837,-8.434 20.044,-15.463c7.081,-9.632 14.161,-19.262 21.293,-28.947c-2.914,19.628 -17.076,35.455 -30.82,49.667c-2.342,2.395 -4.946,4.895 -8.279,5.051c-5.362,0.156 -8.745,-6.143 -8.589,-11.558c0.155,-5.363 2.395,-10.568 2.135,-15.931c-4.999,7.184 -10.674,13.901 -16.921,19.992c-6.039,5.935 -13.797,11.61 -22.074,10.256c-9.163,-1.458 -15.098,-12.911 -11.09,-21.294c-7.705,13.12 -19.836,23.012 -31.705,32.539" style="fill:#ffd600;fill-rule:nonzero;"/><path d="M896.635,198.393c0.417,-0.26 0.938,-0.364 1.353,-0.26c0.209,-1.822 0.261,-3.645 0.157,-5.466c-0.781,0.104 -1.563,0.208 -2.343,0.312c0.104,0.781 -0.573,1.613 -1.405,1.613c-1.406,2.083 -2.812,4.218 -4.269,6.352c-0.417,0.208 -0.885,0.417 -1.302,0.625c-0.573,1.562 -1.146,3.176 -1.77,4.79c1.041,0.104 2.083,0.156 3.123,0.104c-0.155,-1.301 1.302,-2.499 2.551,-2.031c0.157,-0.572 0.313,-1.093 0.521,-1.614c0.625,0 1.302,-0.051 1.978,-0.051c1.042,-1.198 1.562,-2.812 1.406,-4.374M890.024,190.532c1.353,-1.666 3.28,-3.54 5.258,-2.811c0.207,-0.469 0.416,-0.989 0.572,-1.51c0.728,-0.417 1.77,0.051 1.979,0.832c0.936,-2.134 0.572,-4.789 -0.938,-6.611c-0.989,-1.145 0.678,-3.123 2.083,-2.551c0.156,0.468 0.312,0.936 0.469,1.406c1.613,-0.365 2.706,1.717 2.551,3.331c-0.105,1.615 -0.781,3.332 -0.105,4.842c-0.572,0.157 -1.144,0.365 -1.718,0.572c0.417,0.366 0.469,1.094 0.157,1.563c0.417,0.26 0.936,0.26 1.406,0.104c1.717,4.581 1.613,9.839 -0.261,14.317c-0.313,0.208 -0.625,0.416 -0.937,0.625c0.156,1.718 -0.469,3.539 -1.667,4.841c-0.676,0.053 -1.3,0.104 -1.978,0.104c-0.52,1.042 -1.093,2.083 -1.613,3.125l-2.082,0c0.311,1.457 -1.77,2.186 -3.28,2.186c-1.251,0 -2.604,0.052 -3.75,-0.469c-1.196,-0.572 -2.134,-1.77 -1.978,-3.019c-0.52,-0.157 -1.094,-0.365 -1.666,-0.521c0.729,-2.863 -1.145,-6.716 1.302,-8.485c0.416,-1.355 0.833,-2.708 1.249,-4.061c0.416,-0.209 0.937,-0.261 1.406,-0.209c-0.052,-2.864 1.77,-5.362 3.541,-7.601" style="fill:#ffd600;fill-rule:nonzero;"/><path d="M576.401,320.687c1.042,-2.291 2.395,-4.477 3.956,-6.456c0,-4.216 1.719,-8.174 3.489,-12.026c2.342,-5.206 4.685,-10.413 7.028,-15.671c1.51,-1.145 1.457,-3.331 2.031,-5.101c0.572,-1.77 3.176,-3.229 4.112,-1.615c-1.561,5.05 -3.28,10.1 -5.101,15.15c-1.251,3.489 -2.5,6.977 -3.541,10.517c-0.52,1.822 -1.302,3.905 -3.124,4.322c0.313,2.134 -0.312,4.269 -0.989,6.299c-3.852,11.505 -8.746,22.647 -14.63,33.215c-0.728,0.104 -1.457,0.208 -2.238,0.313c0.624,-3.124 1.249,-6.248 1.874,-9.371c1.562,-4.477 3.123,-8.955 4.686,-13.432c0.781,-2.083 1.509,-4.165 2.447,-6.144" style="fill:#ffd600;fill-rule:nonzero;"/><path d="M915.013,116.656c0,1.457 -2.187,1.874 -3.28,0.937c-1.041,-0.937 -1.197,-2.552 -1.302,-3.958c-0.78,-19.678 4.946,-38.89 10.621,-57.737c4.218,-13.848 8.383,-27.748 12.548,-41.649c1.353,-4.321 2.967,-9.058 6.871,-11.349c1.927,-1.146 4.582,-1.459 6.404,-0.104c1.822,1.353 1.926,4.686 -0.104,5.726c-3.384,1.666 -4.946,5.623 -6.143,9.215c-7.862,23.324 -14.786,46.908 -20.929,70.753c-2.344,9.215 -4.634,18.638 -4.686,28.166" style="fill:#ffd600;fill-rule:nonzero;"/><path d="M147.721,127.901c-1.042,4.269 -2.083,8.538 -3.125,12.807c-0.468,1.926 -0.936,3.906 -1.404,5.831c-7.028,28.478 -15.567,56.54 -25.564,84.081c-4.216,11.662 -8.694,23.219 -13.379,34.673c-8.799,21.397 -18.379,42.483 -29.623,62.683c-1.979,-0.209 -4.01,-0.468 -5.988,-0.677c16.817,-34.57 32.071,-69.919 45.606,-105.895c1.771,-4.684 3.489,-9.37 5.051,-14.108c1.874,-5.779 3.487,-11.662 5.102,-17.545c4.686,-16.868 9.372,-33.789 14.005,-50.657c-13.641,20.929 -30.873,39.516 -50.656,54.77c-7.29,5.622 -15.047,10.88 -23.741,14.005c-5.415,1.925 -11.142,3.071 -16.921,3.28c-13.536,0.468 -28.634,-5.52 -33.58,-18.17c6.873,-1.458 12.235,5.466 18.43,8.694c5.363,2.863 11.819,2.863 17.858,1.927c8.329,-1.249 16.4,-4.165 23.583,-8.539c4.635,-2.812 8.904,-6.196 13.016,-9.736c22.595,-19.159 42.067,-42.066 57.269,-67.524c1.77,-2.967 3.697,-6.143 6.873,-7.393c0,5.883 -1.406,11.714 -2.812,17.493" style="fill:#ffd600;fill-rule:nonzero;"/><path d="M355.032,216.979c-1.51,-8.485 0.885,-17.544 6.456,-24.104c1.978,-2.395 5.571,-4.529 8.018,-2.604c-1.094,2.916 -2.239,5.831 -3.332,8.8c-4.634,12.182 -9.319,25.145 -6.821,37.952c0.938,4.634 4.113,9.945 8.799,9.424c1.718,-0.156 3.228,-1.145 4.634,-2.136c6.664,-4.737 12.286,-10.88 16.399,-17.96c5.778,-1.614 6.976,-9.163 7.184,-15.202c1.302,-33.269 8.383,-66.276 20.878,-97.149c1.614,-3.905 4.894,-8.642 8.902,-7.236c0.938,4.477 -1.353,9.371 -5.362,11.505c-11.349,29.104 -17.389,60.237 -17.753,91.474c-0.052,5.258 -2.03,10.361 -2.083,15.566c-0.051,4.529 1.406,9.059 4.009,12.755c-0.937,-20.043 7.445,-39.359 17.909,-56.435c8.643,-14.265 18.847,-27.541 30.352,-39.567c0.73,-2.447 3.28,-5.414 5.05,-3.644c1.302,1.249 0.209,3.384 -0.885,4.79c-8.173,10.568 -15.983,21.397 -23.428,32.486c-10.776,15.983 -21.033,33.372 -22.386,52.583c-0.209,2.343 -0.104,4.998 1.561,6.664c2.656,2.551 6.977,0.989 10.204,-0.729c7.341,-3.8 14.63,-7.654 21.971,-11.453c1.874,2.499 -0.729,5.83 -3.124,7.861c-7.965,6.663 -17.232,13.744 -27.541,12.338c-3.539,-0.468 -7.392,-1.978 -10.568,-0.26c-3.28,1.718 -6.404,-2.863 -6.56,-6.508c-0.156,-3.696 0.364,-8.226 -2.654,-10.308c-3.593,10.516 -10.934,19.731 -20.357,25.667c-2.916,1.77 -6.247,3.332 -9.684,2.915c-6.352,-0.832 -9.736,-7.966 -11.245,-14.265c-0.885,-3.697 -1.459,-7.549 -0.781,-11.297c0.728,-4.009 2.968,-7.913 2.238,-11.923" style="fill:#ffd600;fill-rule:nonzero;"/><path d="M614.718,151.485c5.676,-10.672 12.444,-22.178 23.95,-25.823c-1.406,7.445 -2.812,14.89 -4.218,22.335c-4.425,23.376 -8.851,46.752 -13.276,70.18c-0.885,4.789 -1.822,9.632 -2.239,14.525c-0.311,2.967 -0.416,5.883 -0.885,8.799c-0.832,4.529 -2.602,8.85 -4.112,13.223c-4.633,13.38 -6.769,27.489 -10.1,41.181c-5.415,22.023 -14.109,43.16 -25.772,62.579c-2.967,4.946 -7.496,10.412 -13.171,9.372c-0.417,-2.24 -0.833,-4.426 -1.249,-6.664c6.299,-0.105 10.412,-6.456 13.224,-12.131c10.204,-20.668 18.221,-42.482 23.844,-64.87c1.926,-7.6 3.539,-15.305 5.154,-23.011c0.78,-3.54 1.51,-7.08 2.239,-10.568c5.31,-25.251 10.151,-50.553 14.525,-75.96c1.978,-11.765 3.956,-23.739 8.851,-34.621c-1.249,-0.781 -2.708,0.521 -3.593,1.718c-9.787,13.433 -16.556,28.842 -25.407,42.9c-4.737,7.445 -10.047,14.525 -15.879,21.137c-2.395,2.707 -5.205,5.519 -8.798,6.091c-4.112,0.625 -8.485,-2.395 -9.319,-6.456c-0.521,-2.291 0,-4.684 0.521,-6.975c4.842,-21.19 11.453,-41.962 19.627,-62.111c1.615,0.052 3.228,0.105 4.842,0.156c-3.019,23.377 -17.493,44.617 -17.857,68.202c17.961,-13.068 28.686,-33.581 39.098,-53.208" style="fill:#ffd600;fill-rule:nonzero;"/><path d="M678.39,192.718c1.562,0.209 2.76,-1.353 3.54,-2.759c8.955,-15.254 17.494,-30.769 25.668,-46.492c3.487,-6.767 7.028,-13.64 12.338,-19.106c5.362,-5.414 12.911,-9.215 20.461,-8.07c4.685,8.122 4.373,18.065 3.435,27.437c-1.197,11.714 -3.123,23.428 -6.143,34.83c10.517,-13.016 19.784,-27.021 27.697,-41.807c0.521,-0.364 1.094,-0.676 1.615,-1.04c2.914,-5.884 6.871,-11.246 11.61,-15.775c1.249,-1.25 2.759,-2.448 4.477,-2.552c1.77,-0.104 3.644,1.614 3.019,3.28c-1.821,4.894 -3.54,9.84 -5.154,14.786c-2.03,6.143 -3.957,12.547 -3.384,19.055c0.521,6.455 4.06,13.067 10.099,15.41c5.363,2.134 11.455,0.573 16.765,-1.614c11.662,-4.79 22.751,-13.692 25.302,-25.979c0.833,-3.956 1.718,-9.215 5.728,-9.787c2.238,9.37 -0.366,19.47 -5.937,27.281c-5.569,7.809 -13.899,13.431 -22.854,16.919c-8.33,3.229 -18.274,4.478 -25.771,-0.364c-6.56,-4.322 -9.684,-12.547 -9.84,-20.356c-0.157,-7.862 2.239,-15.515 4.582,-23.012c-4.113,2.655 -6.092,7.549 -8.07,12.027c-5.311,11.974 -12.131,23.324 -20.252,33.528c-4.008,5.05 -9.528,10.255 -15.827,9.162c-0.261,-18.951 6.82,-37.38 6.612,-56.331c0,-2.968 -1.041,-6.82 -4.01,-6.976c-1.144,-0.052 -2.186,0.52 -3.123,1.094c-13.432,8.225 -20.981,23.115 -27.905,37.223c-5.935,12.183 -11.923,24.418 -17.858,36.6c-3.435,1.823 -7.496,2.499 -11.349,1.927c-2.811,-7.081 -4.164,-14.682 -4.009,-22.282c-3.071,8.225 -10.933,13.484 -17.128,19.731c-2.967,2.967 -5.571,6.195 -8.226,9.475c-6.925,8.538 -13.796,17.076 -20.721,25.666c-1.718,-2.602 -0.312,-6.09 1.25,-8.798c3.748,-6.403 8.33,-12.339 13.484,-17.649c6.351,-7.081 12.652,-14.109 19.002,-21.189c3.541,-4.009 7.341,-8.174 12.339,-10.152c2.499,-7.237 4.946,-14.422 7.445,-21.659c1.823,-5.309 3.697,-10.725 6.456,-15.618c3.852,-6.717 10.204,-12.86 17.961,-13.068c2.812,-0.052 5.988,1.042 6.977,3.645c0.937,2.447 -0.365,5.05 -1.667,7.288c-5.935,10.1 -13.431,19.263 -22.074,27.177c-1.874,-3.072 0.937,-6.716 3.385,-9.319c5.779,-6.195 10.516,-13.38 13.952,-21.085c-2.968,-1.302 -6.039,1.457 -8.07,3.956c-5.778,7.029 -11.766,14.629 -12.547,23.689c-0.416,5.413 -2.654,10.516 -4.113,15.774c-1.405,5.259 -1.926,11.142 0.833,15.879" style="fill:#ffd600;fill-rule:nonzero;"/><path d="M806.147,465.331l2.03,0.079c0.275,-0.407 0.399,-0.923 0.313,-1.395c0.889,-0.07 1.728,-0.194 2.616,-0.264c-0.201,-1.57 1.252,-2.765 2.589,-3.651c0.546,-2.011 1.145,-4.019 1.744,-6.029c0.704,-0.703 1.41,-1.457 2.116,-2.211c0.469,-1.336 0.939,-2.725 1.408,-4.061c0.424,-0.192 0.948,-0.276 1.413,-0.154c0.41,-1.183 0.46,-2.483 0.142,-3.694l-2.134,-0.082c-0.224,0.408 -0.344,0.821 -0.307,1.238c-0.427,0.245 -0.801,0.49 -1.176,0.736c-1.644,2.125 -3.34,4.196 -4.982,6.268c-1.259,1.567 -2.626,3.234 -4.523,3.787c-0.446,0.764 -0.944,1.526 -1.391,2.29c-0.326,0.352 -0.798,0.438 -1.208,0.266c-0.176,0.515 -0.353,1.028 -0.58,1.541l-2.081,-0.08c-0.224,0.408 -0.346,0.872 -0.258,1.292c-0.792,0.283 -1.629,0.355 -2.458,0.218c0.074,0.785 -0.528,1.543 -1.267,1.774c0.719,0.289 1.211,1.037 1.129,1.816l2.133,0.083c0.244,0.425 0.328,0.949 0.206,1.413c1.292,0.259 2.591,0.361 3.947,0.309c0.177,-0.514 0.353,-1.029 0.579,-1.489M884.778,448.825c-0.132,2.079 -1.296,3.909 -2.459,5.689c-2.491,3.81 -4.987,7.726 -8.487,10.665c-3.502,2.991 -8.16,4.895 -12.662,4.097c-1.585,-4.854 -1.954,-10.131 -1.135,-15.153c2.075,0.236 3.363,-2.111 4.425,-3.946c2.456,-4.282 6.647,-7.558 11.391,-8.991c0.431,-1.702 0.914,-3.456 1.347,-5.21c-5.139,0.844 -10.235,1.951 -15.237,3.32c0.634,3.829 0.117,7.768 -1.426,11.304c-0.568,1.228 -2.183,2.573 -3.082,1.548l0.371,-9.624c-2.298,-1.183 -5.193,-0.409 -7.285,1.126c-2.041,1.588 -3.48,3.772 -4.967,5.852c-4.62,6.334 -10.306,11.898 -16.778,16.285c4.555,2.104 9.724,-0.875 13.794,-3.74c4.872,-3.408 9.747,-6.866 14.62,-10.274c1.073,4.575 -1.196,9.384 -4.551,12.642c-3.408,3.255 -7.757,5.224 -12.048,7.09c-4.243,1.92 -10.442,3.244 -12.574,-0.902c-0.727,-1.433 -0.861,-3.367 -2.345,-4.05c-0.614,-0.283 -1.345,-0.26 -2.027,-0.129c-4.817,0.595 -9.335,2.922 -12.698,6.388c-2.61,2.816 -5.835,6.756 -9.426,5.263c-2.236,-2.796 -4.527,-5.541 -6.765,-8.284c-1.455,-0.109 -2.859,-0.163 -4.262,-0.269c-5.258,6.623 -12.283,11.823 -20.11,14.855c-3.281,1.28 -8.278,1.192 -8.771,-2.265c-0.484,-3.667 4.715,-4.717 8.301,-5.828c3.477,-1.013 6.381,-3.349 9.178,-5.638c2.796,-2.237 5.594,-4.526 8.388,-6.763c-0.216,-5.167 0.816,-10.336 3.028,-14.992c2.867,2.663 3.891,7.184 2.448,10.826c2.178,-1.113 4.016,-2.815 5.849,-4.411c9.449,-8.597 18.896,-17.142 28.345,-25.74c1.735,-0.401 3.573,-0.799 5.213,-0.059c1.587,0.687 2.538,3.068 1.242,4.269c-6.652,6.307 -11.349,14.619 -13.412,23.553c-2.542,-0.307 -4.893,2.572 -4.101,5c9.154,-0.95 16.114,-8.496 22.113,-15.456c2.726,-3.124 5.401,-6.304 8.127,-9.428c0.548,-2.063 2.783,-3.28 4.931,-3.562c2.095,-0.284 4.268,0.113 6.408,-0.013c5.223,-0.32 9.673,-3.587 14.632,-5.167c4.957,-1.58 11.791,-0.431 13.161,4.571c7.045,2.407 14.472,-2.412 21.934,-2.698c3.391,-0.13 6.747,0.677 9.707,2.302c-0.499,2.118 -0.996,4.181 -1.492,6.248c-2.831,-0.892 -5.388,1.927 -6.638,4.589c-1.299,2.658 -2.467,5.896 -5.264,6.83c2.161,0.709 4.45,-0.558 6.223,-1.948c5.158,-4.074 9.119,-9.496 14.077,-13.786c4.959,-4.289 11.648,-7.521 17.993,-5.871c-1.135,5.114 -5.039,9.08 -7.51,13.726c-2.524,4.644 -2.941,11.401 1.537,14.179c11.317,2.416 23.517,0.854 33.878,-4.373c1.594,-0.825 3.245,-1.751 4.445,-3.112c2.23,-2.466 2.897,-6.244 1.607,-9.264c5.052,0.039 8.085,6.513 6.442,11.294c-1.698,4.833 -6.296,7.885 -10.912,10.051c-8.861,4.14 -18.681,6.158 -28.462,5.781c-5.567,-0.215 -11.663,-1.544 -14.926,-6.098c-3.955,-5.519 -1.943,-13.1 0.18,-19.53c-1.143,-0.097 -2.232,-0.243 -3.374,-0.339c-7.536,11.692 -19.29,20.617 -32.631,24.74c-1.232,-3.174 0.623,-6.697 2.859,-9.268c2.232,-2.518 5.028,-4.756 6.294,-7.885c1.152,-2.821 2.36,-7.151 5.302,-6.412c-0.004,-1.251 -0.009,-2.45 0.039,-3.698c-5.68,1.344 -11.358,2.689 -16.983,3.982c-1.472,0.36 -3.201,0.606 -4.256,-0.424c-1.708,-1.629 -4.517,-0.383 -6.446,1.001c-7.027,5.2 -13.01,11.743 -17.518,19.228c6.252,-1.374 11.969,-5.061 15.711,-10.231c1.87,-2.534 5.33,-5.787 7.48,-3.463" style="fill:#ffd600;fill-rule:nonzero;"/><path d="M460.923,431.652c-0.282,0.562 -0.412,1.234 -0.281,1.865c-1.154,0.217 -2.303,0.276 -3.441,0.076c-0.118,0.36 -0.291,0.77 -0.409,1.13c-1.186,1.048 -3.157,0.816 -4.26,-0.32c-1.104,-1.084 -1.346,-2.917 -0.718,-4.352c0.634,-1.539 2.708,-2.658 3.915,-1.517c0.38,-0.401 0.56,-1.02 0.424,-1.546c1.985,-0.132 3.964,-0.108 5.935,0.124c0.993,1.237 1.4,2.868 1.236,4.424c-0.79,0.23 -1.574,0.304 -2.401,0.116" style="fill:#ffd600;fill-rule:nonzero;"/><path d="M222.641,444.454c0.816,-0.907 1.583,-1.867 2.401,-2.826c1.631,-0.405 3.347,-0.339 4.997,0.141c-0.054,1.405 -0.161,2.808 -0.215,4.212c-0.474,0.138 -0.951,0.328 -1.425,0.466c-0.548,2.063 -1.096,4.126 -1.645,6.189c-0.368,0.09 -0.685,0.182 -1.052,0.272c-0.502,0.866 -1.057,1.73 -1.561,2.649c-0.375,0.246 -0.751,0.544 -1.124,0.79c-1.482,1.922 -2.961,3.794 -4.389,5.718c-0.695,0.442 -1.588,0.616 -2.358,0.327c-0.304,1.134 -0.664,2.371 -1.677,2.956c-1.012,0.587 -2.697,-0.312 -2.29,-1.391c-0.463,-0.173 -0.925,-0.347 -1.387,-0.522l0.1,-2.601c0.526,-0.136 1.052,-0.271 1.581,-0.46c-0.12,-2.297 1.442,-4.998 3.728,-4.805c0.088,-0.935 0.176,-1.87 0.316,-2.802c1.321,-0.47 2.357,-1.68 2.673,-3.075c0.525,-0.137 1.053,-0.324 1.58,-0.46c-0.561,-1.689 0.653,-3.413 1.747,-4.778" style="fill:#ffd600;fill-rule:nonzero;"/><path d="M175.846,509.547c-0.126,0.568 -0.096,1.142 0.04,1.669c1.213,-0.37 2.519,-0.476 3.759,-0.22c0.561,-1.021 1.122,-2.04 1.734,-3.059l2.028,0.078c0.277,-0.405 0.397,-0.818 0.36,-1.236c0.377,-0.298 0.803,-0.542 1.178,-0.789l5.594,-7.286c0.425,-0.192 0.851,-0.436 1.276,-0.628c0.453,-0.973 0.962,-1.996 1.416,-2.968c-1.132,-0.356 -2.376,-0.509 -3.579,-0.398c-0.222,0.356 -0.347,0.872 -0.258,1.293c-0.735,0.127 -1.468,0.203 -2.202,0.332c-3.339,4.195 -6.679,8.39 -10.019,12.586c-0.478,0.242 -0.903,0.434 -1.327,0.626M161.408,528.633c-2.98,2.959 -7.608,4.083 -11.626,2.887c-0.834,-1.335 -1.66,-2.878 -1.081,-4.367c0.351,-1.028 1.418,-1.665 2.379,-2.252c1.438,-0.831 2.825,-1.663 4.266,-2.546c1.046,-0.115 2.093,-0.232 3.141,-0.4c0.474,-1.491 2.283,-2.464 3.778,-2.042c3.377,-1.12 6.431,-3.295 8.522,-6.184c-0.783,-3.99 1.144,-8.032 3.615,-11.323c2.47,-3.239 5.547,-6.039 7.61,-9.553c0.624,0.024 1.251,-0.005 1.929,-0.03c0.767,-0.96 1.533,-1.921 2.353,-2.932c0.939,-0.015 1.877,-0.032 2.818,-0.1c2.503,-2.769 7.549,-2.574 9.832,0.379c0.776,0.135 1.553,0.269 2.329,0.403c-2.65,7.921 -6.945,15.259 -12.548,21.399c-0.543,0.603 -1.296,1.2 -2.066,0.91c-1.973,2.528 -4.605,4.564 -7.521,5.858c-2.058,0.702 -4.063,1.354 -6.12,2.004c-0.513,1.127 -1.022,2.202 -1.536,3.328c1.268,-0.42 2.741,0.522 2.954,1.78l3.017,0.117c0.629,-1.434 2.53,-2.091 3.911,-1.412c1.232,-0.891 2.466,-1.833 3.701,-2.776c2.9,-2.232 6.145,-3.982 9.581,-5.257c0.508,3.042 -0.765,6.327 -3.184,8.266c-0.627,0.028 -1.305,0.054 -1.931,0.082c-0.275,1.709 -1.785,3.056 -3.458,3.2c-3.025,4.156 -8.776,6.018 -13.615,4.478c-1.855,-0.54 -3.731,-1.864 -3.865,-3.796l-7.185,-0.121" style="fill:#ffd600;fill-rule:nonzero;"/><path d="M724.907,480.591c4.47,0.277 9.15,0.509 13.232,-1.313c1.961,-0.862 3.665,2.225 2.606,4.008c-1.112,1.833 -3.427,2.421 -5.475,2.811c-6.289,3.665 -14.524,3.764 -20.9,0.236c-1.037,-1.498 -2.023,-2.943 -3.06,-4.442c-3.355,-4.871 -3.188,-11.898 0.433,-16.604c-1.87,-1.53 -4.355,0.771 -5.784,2.696c-2.251,2.987 -4.854,5.647 -7.806,7.878c-3.721,0.586 -7.515,0.336 -11.123,-0.689c-0.03,-3.284 0.463,-6.599 1.417,-9.74c1.135,-3.76 2.888,-7.339 4.64,-10.867c1.746,-3.424 3.442,-6.849 5.19,-10.324c2.995,-6.033 5.989,-12.065 9.034,-18.095c0.846,-1.636 1.747,-3.424 3.446,-4.244c1.649,-0.875 4.172,-0.101 4.414,1.733c0.074,0.784 -0.214,1.503 -0.554,2.218c-2.569,5.842 -5.087,11.684 -7.658,17.524c-0.854,1.894 -1.657,3.791 -2.563,5.685c-3.174,6.65 -7.116,12.958 -11.714,18.72c4.273,1.312 8.127,-2.708 11.323,-5.867c4.767,-4.714 10.633,-8.239 17.016,-10.285c1.289,4.426 -1.073,8.92 -2.954,13.12c-1.134,2.404 -2.12,4.972 -2.17,7.627c-0.05,2.655 1.038,5.51 3.277,6.899c1.679,1.055 3.758,1.188 5.733,1.315" style="fill:#ffd600;fill-rule:nonzero;"/><path d="M662.034,481.606c-3.852,2.613 -9.744,1.396 -12.303,-2.506c-0.989,-0.038 -1.979,-0.024 -2.968,-0.062c-3.317,3.623 -7.24,6.703 -11.551,9.089c-2.142,0.126 -4.28,0.2 -6.422,0.326c-2.193,0.124 -4.043,-1.876 -4.534,-4.03c-0.492,-2.103 0.011,-4.324 0.563,-6.491c0.995,-4.182 1.989,-8.364 3.037,-12.544c1.179,-4.904 4.362,-9.105 8.191,-12.448c1.671,-1.447 3.704,-2.827 5.934,-2.586c2.179,0.24 3.998,3.073 2.63,4.791c-2.605,1.358 -4.721,3.518 -6.022,6.176c-3.892,6.363 -6.818,13.335 -8.609,20.613c0.793,-1.688 2.963,-2.543 4.654,-1.801c0.942,-2.829 4.118,-4.113 6.823,-5.363c5.361,-2.555 10.047,-6.542 13.363,-11.468c3.919,-5.685 9.207,-10.431 15.323,-13.633c0.228,-0.513 0.454,-0.973 0.679,-1.432c2.095,-0.285 4.065,-1.355 5.379,-3.024c1.873,0.072 3.8,0.095 5.675,0.114c4.32,4.179 5.025,11.553 1.553,16.472c-1.433,0.674 -2.864,1.348 -4.352,2.073c-0.499,-3.249 0.153,-6.664 1.826,-9.516c-1.252,-1.3 -3.333,-1.38 -5.025,-0.767c-1.692,0.664 -3.043,1.914 -4.34,3.115c-6.377,5.954 -12.807,11.907 -17.771,19.062c3.079,1.212 6.983,-0.044 8.706,-2.843c3.386,0.026 6.757,-0.938 9.586,-2.704c1.337,-0.887 3.147,0.798 2.981,2.407c-0.112,1.558 -1.408,2.758 -2.697,3.751c-3.111,2.329 -6.618,4.069 -10.309,5.229" style="fill:#ffd600;fill-rule:nonzero;"/><path d="M480.534,498.681c5.656,1.937 10.691,-4.329 16.53,-5.771c-0.078,4.738 -3.173,9.308 -7.566,11.118c-4.971,1.893 -10.978,3.641 -15.233,0.507c-3.748,-2.802 -4.323,-8.138 -4.091,-12.819c-3.817,3.031 -7.632,6.063 -11.45,9.146c-2.741,2.186 -5.59,4.421 -8.959,5.333c-3.369,0.913 -7.507,0.128 -9.479,-2.762c-2.169,-3.209 -1.014,-7.489 0.17,-11.195c-3.835,3.5 -7.668,6.999 -11.449,10.5c-1.89,1.698 -3.833,3.447 -6.256,4.135c-2.475,0.686 -5.518,-0.108 -6.522,-2.439c-1.343,-4.376 0.918,-8.978 3.103,-12.958c3.981,-7.297 7.964,-14.646 11.944,-21.944c0.731,-1.377 2.511,-2.977 3.665,-1.838c2.544,2.965 0.702,7.478 -1.201,10.895c-3.865,6.989 -7.779,13.924 -11.643,20.913c6.641,-4.694 13.285,-9.44 19.928,-14.184c0.333,-0.509 0.665,-1.017 1.049,-1.524c3.866,-4.331 7.733,-8.662 11.596,-12.943c2.942,-3.325 6.936,-6.922 11.106,-5.615c0.374,2.463 -0.968,4.86 -2.451,6.835c-6.427,8.558 -17.202,15.072 -17.975,25.67c5.925,0.385 11.93,-2.666 15.094,-7.702c4.31,-0.98 8.305,-3.275 11.295,-6.494c2.338,-2.515 4.069,-5.523 6.302,-8.042c2.285,-2.516 5.44,-4.635 8.822,-4.505c-2.017,6.383 -5.17,12.462 -9.281,17.774c-2.52,3.186 -0.906,8.614 2.952,9.909" style="fill:#ffd600;fill-rule:nonzero;"/><path d="M329.292,483.629c5.237,-2.038 11.328,-1.908 16.502,0.376c0.137,3.183 0.219,6.469 -0.885,9.447c-1.105,2.98 -3.76,5.639 -6.944,5.776c-0.694,-3.622 0.395,-7.539 2.846,-10.31c-9.485,0.051 -18.605,6.89 -21.199,16.063c8.17,0.264 16.383,-0.618 24.325,-2.553c1.841,-0.449 3.632,-0.954 5.283,-1.88c2.821,-1.558 4.9,-4.135 6.875,-6.716c3.067,-3.841 6.082,-7.737 9.147,-11.579c2.412,-3.085 5.303,-6.464 9.221,-6.73c1.463,-0.1 2.601,1.455 2.702,2.918c0.048,1.46 -0.683,2.839 -1.462,4.111c-5.521,9.426 -13.132,17.625 -22.024,23.951c2.696,4.429 9.296,3.485 14.25,2.008c5.113,-1.522 10.176,-3.098 15.235,-4.622c2.478,-0.739 6.465,-0.115 5.85,2.361c-0.299,0.978 -1.259,1.567 -2.163,2.053c-2.658,1.356 -5.367,2.71 -8.025,4.067c-5.262,2.714 -10.735,5.473 -16.634,5.767c-5.951,0.292 -12.453,-2.668 -14.374,-8.265c-0.234,-0.686 -1.172,-0.67 -1.855,-0.54c-8.345,1.606 -16.689,3.16 -25.036,4.766c-0.375,-2.411 -1.746,-4.704 -3.666,-6.238c-1.454,2.55 -2.498,5.323 -3.076,8.166c-2.938,0.512 -5.876,1.024 -8.812,1.536c-0.846,-3.732 1.585,-7.338 3.79,-10.482c11.019,-15.518 20.112,-32.465 26.894,-50.283c1.742,-4.622 4.928,-10.23 9.738,-9.315c-3.209,12.954 -8.841,25.241 -16.503,36.147" style="fill:#ffd600;fill-rule:nonzero;"/><path d="M245.628,500.931c-2.617,4.38 -5.114,9.702 -3.106,14.365c4.707,-0.496 9.416,-0.992 14.124,-1.487c-0.811,2.104 -1.725,4.206 -3.198,5.92c-3.435,3.983 -9.878,4.881 -14.25,2.055c-4.424,-2.828 -6.267,-9.098 -4.051,-13.859c-5.731,6.761 -12.229,13.127 -20.19,16.937c-2.919,1.398 -6.345,2.412 -9.319,1.152c-3.281,-1.378 -4.903,-5.243 -4.819,-8.783c0.136,-3.538 1.721,-6.811 3.302,-9.98c7.279,-14.464 16.038,-28.142 26.012,-40.887c1.751,-2.172 3.608,-4.393 6.153,-5.546c2.595,-1.097 6.016,-0.654 7.489,1.695c1.429,0.785 0.818,3.106 -0.568,3.938c-1.386,0.781 -3.102,0.715 -4.633,1.228c-3.162,0.921 -5.102,3.972 -6.826,6.771c-7.344,12.117 -14.69,24.286 -22.035,36.403c-1.444,2.341 -2.91,5.203 -1.651,7.699c10.479,-2.878 20.048,-9.178 26.786,-17.723c0.71,-0.859 1.371,-1.771 2.03,-2.683c8.74,-11.803 17.427,-23.608 26.163,-35.358c0.993,-0.066 1.932,-0.082 2.922,-0.096c0.532,1.063 1.01,2.175 1.542,3.237c1.47,-0.256 2.574,-1.88 2.268,-3.403c-2.191,0.072 -3.855,-2.701 -2.843,-4.642c0.446,-0.764 1.144,-1.31 1.891,-1.751c2.241,-1.372 5.02,-1.838 7.604,-1.27c1.613,5.429 -0.349,11.761 -4.76,15.343c-3.228,2.637 -7.818,4.127 -9.324,8.028c-6.211,7.056 -11.817,14.654 -16.713,22.697" style="fill:#ffd600;fill-rule:nonzero;"/><path d="M581.053,456.342c-5.533,1.611 -11.065,3.22 -16.543,4.78c-4.411,9 -8.002,18.345 -10.77,27.98c-3.548,0.125 -4.499,-4.914 -3.844,-8.431c1.066,-6.003 3.114,-11.812 6.079,-17.115c-7.398,2.684 -16.014,1.831 -22.732,-2.284c-0.95,-1.026 -0.36,-2.827 0.764,-3.617c1.177,-0.789 2.638,-0.837 4.047,-0.886c6.939,-0.254 13.878,-0.508 20.867,-0.707c4.077,-9.795 8.204,-19.534 12.281,-29.329c1.837,-4.409 5.325,-9.745 10.024,-8.678c-3.074,12.177 -7.851,23.924 -14.157,34.778l27.127,-6.3c-4.262,6.505 -8.579,13.059 -12.895,19.613c-3.323,5.083 -6.815,10.523 -6.997,16.611c11.848,-8.661 15.477,-25.766 27.867,-33.624c2.401,-1.47 5.31,-2.557 7.93,-1.623c3.24,1.115 4.756,5.029 4.311,8.451c-0.442,3.37 -2.381,6.369 -4.263,9.213c-3.984,6.047 -7.966,12.041 -11.899,18.089c0.583,1.117 2.328,0.455 3.349,-0.339c6.231,-4.865 12.409,-9.734 18.642,-14.6l3.588,0.139c-4.665,10.188 -13.526,18.391 -24.04,22.206c-2.06,0.703 -4.458,-0.588 -5.477,-2.555c-1.02,-1.915 -0.877,-4.254 -0.38,-6.371c2.313,-9.967 12.28,-17.136 13.246,-27.312c-9.393,5.786 -17.366,13.919 -22.995,23.445c-2.005,3.362 -3.704,6.89 -6.266,9.814c-2.563,2.975 -6.195,5.283 -10.095,5.082c-0.791,-13.265 4.104,-26.726 13.231,-36.43" style="fill:#ffd600;fill-rule:nonzero;"/><path d="M77.879,512.7c10.57,-13.346 19.925,-27.627 27.954,-42.635c3.708,-6.995 7.165,-14.208 9.591,-21.721c-9.329,6.83 -18.86,13.497 -28.34,20.165c-4.605,3.261 -9.264,6.52 -13.871,9.782c-7.333,5.083 -16.709,10.453 -24.625,6.292c-2.655,-1.405 -4.702,-3.724 -6.698,-5.989c-0.048,-1.461 -0.096,-2.922 -0.144,-4.382c4.134,-1.82 8.525,1.839 13.036,2.43c4.665,0.597 9.043,-2.153 12.9,-4.87c13.059,-8.978 25.967,-18.119 38.728,-27.474c2.145,-1.585 4.343,-3.167 6.919,-3.798c2.579,-0.681 5.633,-0.147 7.274,1.896c1.091,1.397 1.44,3.181 1.476,4.954c0.357,12.362 -10.947,21.774 -15.405,33.324c4.735,-3.881 9.519,-7.709 14.254,-11.59c1.4,-1.144 2.957,-2.387 4.781,-2.368c1.823,0.017 3.673,2.017 2.779,3.598c-6.779,12.294 -11.615,25.602 -16.397,38.807c-2.564,7.039 -5.144,14.494 -3.917,21.888c2.352,2.487 6.292,3.005 9.613,1.986c3.32,-0.966 6.114,-3.151 8.703,-5.448c22.528,-19.451 37.769,-47.207 42.083,-76.685c1.097,-0.062 2.144,-0.178 3.24,-0.24c2.248,7.902 -0.211,16.3 -2.649,24.125c-2.134,6.69 -4.218,13.436 -7.121,19.836c-6.205,13.621 -15.931,25.384 -26.447,35.973c-4.715,4.715 -9.844,9.362 -16.216,11.149c-6.376,1.838 -14.319,-0.239 -17.268,-6.188c-1.495,-3.132 -1.46,-6.725 -1.171,-10.153c1.151,-12.303 5.521,-24.275 12.632,-34.42c1.932,-2.791 4.174,-5.57 4.617,-8.94c-1.538,-0.632 -3.144,0.452 -4.385,1.551c-15.047,13.278 -20.866,34.467 -35.114,48.61c-1.188,-0.254 -2.428,-0.511 -3.615,-0.816c-0.667,1.068 -1.687,1.863 -2.802,2.393c-0.561,1.072 1.073,1.916 2.266,2.067c0.894,5.192 -5.696,9.887 -10.288,7.366c-0.305,-0.168 -0.393,-0.589 -0.432,-0.955c-0.821,-11.128 7.106,-20.774 14.059,-29.52" style="fill:#ffd600;fill-rule:nonzero;"/></g></svg>